<?xml version="1.0" standalone="no"?>
<!DOCTYPE svg PUBLIC "-//W3C//DTD SVG 20010904//EN"
 "http://www.w3.org/TR/2001/REC-SVG-20010904/DTD/svg10.dtd">
<svg version="1.0" xmlns="http://www.w3.org/2000/svg"
 width="449.000000pt" height="440.000000pt" viewBox="0 0 449.000000 440.000000"
 preserveAspectRatio="xMidYMid meet">
<metadata>
Created by potrace 1.16, written by Peter Selinger 2001-2019
</metadata>
<g transform="translate(0.000000,440.000000) scale(0.100000,-0.100000)"
fill="#000000" stroke="none">
<path d="M2003 4365 c-141 -61 -291 -327 -537 -956 l-58 -147 -131 -4 c-152
-5 -196 -19 -271 -88 -71 -65 -108 -164 -74 -198 7 -7 38 -12 70 -12 56 0 60
2 76 31 31 57 61 86 110 107 57 25 147 39 156 24 3 -5 -27 -87 -68 -182 -119
-273 -192 -387 -264 -411 -20 -6 -43 -16 -49 -22 -16 -12 -17 -49 -1 -65 15
-15 126 -16 165 -1 94 35 215 230 348 559 21 52 40 97 42 99 1 2 68 -7 149
-20 l146 -23 -6 -36 c-3 -19 -14 -84 -25 -145 -25 -133 -27 -276 -6 -335 15
-42 15 -42 -8 -35 -52 17 -281 17 -369 1 -186 -35 -389 -122 -530 -229 -91
-68 -150 -138 -191 -227 -26 -56 -31 -77 -31 -150 -1 -76 2 -92 31 -151 33
-66 60 -95 267 -282 47 -44 99 -100 114 -125 24 -41 27 -57 27 -132 0 -76 -3
-90 -30 -137 -66 -113 -270 -232 -530 -308 -118 -35 -267 -45 -313 -21 -18 9
-32 24 -32 33 0 24 112 130 195 184 101 66 230 134 305 160 77 26 90 35 90 60
0 30 -33 45 -97 42 -69 -2 -131 -25 -262 -94 -323 -172 -459 -342 -353 -441
35 -33 77 -45 187 -53 256 -18 589 54 791 172 91 53 217 175 251 243 l23 45 0
-35 c0 -46 29 -102 60 -117 44 -22 141 -16 194 12 l47 25 29 -21 c38 -29 146
-36 214 -15 43 13 52 13 70 0 26 -18 165 -19 189 -1 9 6 35 61 57 121 39 106
84 179 146 236 l26 25 -25 -50 c-14 -27 -41 -74 -61 -104 -20 -29 -36 -57 -36
-62 0 -6 11 -21 25 -34 21 -22 33 -25 95 -25 39 0 80 5 91 10 10 6 41 43 68
83 51 76 129 173 118 147 -86 -204 -99 -257 -77 -310 7 -17 25 -37 41 -45 37
-20 159 -19 206 0 20 8 37 14 38 13 1 -2 -49 -194 -111 -428 -63 -234 -114
-437 -114 -452 0 -17 7 -31 19 -38 30 -15 164 -13 186 4 15 11 48 121 136 448
l116 433 89 5 c75 4 97 10 138 34 61 36 123 97 171 169 34 52 42 58 109 80
l71 24 -29 -61 c-21 -43 -30 -77 -30 -114 -1 -50 2 -56 37 -89 l39 -35 91 4
c77 2 97 7 124 26 l32 23 32 -23 c26 -20 43 -23 117 -23 77 0 93 3 138 28 28
16 74 49 102 73 52 46 182 227 182 255 0 28 -23 39 -82 39 -55 0 -58 1 -48 19
5 11 10 38 10 60 0 66 -40 91 -147 91 -81 0 -131 -22 -197 -86 -41 -41 -73
-96 -138 -239 -11 -24 -78 -111 -78 -101 0 11 40 86 67 127 15 23 23 48 21 65
-3 29 -14 35 -80 49 l-27 5 19 43 c45 97 19 137 -90 137 -72 0 -116 -20 -146
-65 l-17 -26 -18 30 c-10 17 -32 37 -48 46 -40 20 -179 20 -228 0 -32 -14 -38
-14 -53 0 -12 11 -40 15 -107 15 -109 0 -111 -2 -142 -120 -16 -62 -36 -106
-73 -163 -82 -124 -83 -114 -7 48 24 53 33 84 33 128 1 53 -2 61 -28 84 -27
23 -35 25 -115 21 -63 -2 -97 -9 -126 -24 l-41 -22 -27 24 c-24 21 -38 24
-100 24 -40 -1 -89 -7 -109 -14 -32 -11 -39 -11 -49 0 -8 10 -38 14 -105 14
l-94 0 -20 -32 c-11 -18 -20 -27 -20 -20 0 7 -15 21 -32 32 -48 29 -157 28
-223 -4 -79 -36 -162 -139 -199 -244 -18 -50 -72 -132 -61 -92 4 14 34 89 66
167 32 78 59 146 59 151 0 6 -7 18 -16 26 -12 12 -37 16 -109 16 -113 0 -108
5 -164 -155 l-37 -105 -12 73 c-20 115 -65 182 -192 286 -204 166 -249 227
-250 331 0 167 194 356 458 446 193 65 337 64 415 -4 50 -44 -12 -164 -133
-257 -93 -71 -207 -123 -359 -161 -44 -12 -59 -46 -31 -74 52 -52 316 24 488
142 69 47 157 142 186 200 30 60 36 151 11 184 -22 29 -18 34 20 34 78 0 152
50 241 165 l59 75 66 0 c50 0 70 4 81 18 9 9 35 69 58 132 46 125 94 203 180
285 l52 50 -45 -90 c-25 -49 -60 -110 -76 -135 -38 -55 -39 -73 -5 -99 22 -17
41 -21 108 -21 48 1 87 6 96 13 9 7 45 54 80 106 36 52 86 118 113 145 l48 51
-17 -40 c-78 -194 -94 -236 -99 -280 -5 -38 -2 -59 12 -85 27 -52 53 -61 164
-58 88 3 99 5 144 35 l50 32 24 -30 c13 -17 33 -34 45 -38 18 -7 17 -10 -17
-26 -20 -9 -52 -35 -72 -56 -22 -24 -35 -33 -35 -24 0 30 -29 72 -58 84 -17 7
-73 12 -128 12 -55 0 -132 0 -172 1 -52 2 -76 -2 -87 -13 -7 -7 -77 -250 -153
-539 -121 -453 -138 -528 -127 -545 10 -17 25 -20 86 -23 41 -1 80 2 88 7 8 5
52 150 101 333 l87 323 59 6 c103 11 159 45 225 137 21 31 39 48 39 39 0 -9
11 -28 24 -44 20 -23 34 -29 82 -33 55 -5 58 -7 66 -36 16 -64 137 -72 228
-16 l50 31 15 -23 c22 -33 57 -46 126 -46 70 0 118 19 153 61 21 24 32 29 70
29 42 0 46 -2 46 -23 0 -53 87 -80 180 -56 50 12 132 89 190 177 51 78 59 103
38 119 -18 13 -97 14 -120 2 -18 -10 -18 -8 1 30 29 55 28 89 -3 97 -13 3 -86
4 -163 2 -136 -3 -141 -4 -178 -32 -21 -16 -51 -51 -68 -78 -21 -33 -34 -45
-41 -38 -5 5 -21 10 -34 10 -21 0 -23 4 -18 23 30 103 16 120 -98 117 -45 -2
-115 -2 -156 -1 l-75 3 45 15 c65 23 166 129 210 219 32 67 37 72 91 96 l57
25 -35 -73 c-26 -54 -35 -87 -36 -129 -1 -55 1 -59 41 -96 l41 -39 91 0 c109
0 143 14 213 88 92 99 195 288 183 336 -6 26 -8 27 -74 24 l-67 -3 -55 -103
c-57 -107 -141 -224 -147 -205 -6 16 22 79 67 150 41 64 50 103 28 120 -7 6
-37 16 -65 23 -29 6 -53 13 -53 13 0 1 11 24 25 51 52 102 22 156 -87 156 -68
0 -118 -20 -150 -59 l-22 -26 -31 32 c-40 40 -101 56 -191 51 -55 -4 -83 -11
-119 -32 -60 -36 -105 -104 -105 -161 0 -33 -11 -58 -59 -130 -32 -50 -74
-108 -94 -130 -36 -40 -36 -39 28 100 83 181 94 222 75 278 -22 61 -62 80
-161 74 -56 -4 -91 -12 -133 -33 l-57 -28 -14 21 c-8 12 -32 27 -52 34 -48 15
-160 6 -210 -18 l-39 -19 -17 23 c-17 21 -25 23 -111 23 -103 0 -115 -6 -137
-69 -8 -23 -15 -29 -22 -22 -6 6 -36 11 -67 11 -49 0 -60 -4 -85 -30 -15 -16
-41 -34 -57 -39 -25 -9 -28 -8 -24 7 10 31 104 513 132 677 31 183 38 374 15
438 -19 55 -60 77 -141 77 -36 -1 -79 -7 -97 -15z m100 -16 c45 -20 52 -50 52
-213 -1 -112 -7 -185 -24 -281 -33 -186 -130 -681 -138 -701 -6 -15 0 -17 56
-11 70 8 117 28 147 65 14 17 27 23 37 19 23 -9 21 -28 -5 -67 -30 -44 -96
-77 -183 -93 l-70 -13 -32 -165 c-59 -303 -36 -393 72 -284 51 50 163 216 229
338 25 45 66 141 91 212 26 72 54 136 63 143 21 16 83 15 107 -2 18 -13 17
-16 -8 -85 -15 -40 -27 -74 -27 -77 0 -3 26 20 57 51 108 106 240 146 293 90
20 -21 22 -31 17 -79 l-5 -54 51 49 c103 98 236 139 284 87 47 -52 37 -98 -62
-310 -89 -190 -96 -218 -49 -218 62 0 294 287 294 365 0 47 16 85 53 123 46
48 78 62 143 62 109 0 159 -59 152 -181 -2 -38 0 -69 5 -69 6 0 86 38 95 45 1
1 -5 15 -13 31 -29 56 8 133 81 165 103 46 134 -39 54 -151 l-20 -28 32 -11
c18 -5 50 -13 71 -17 21 -3 41 -13 44 -20 3 -8 -16 -49 -41 -91 -51 -85 -83
-171 -73 -197 9 -22 55 -20 94 4 47 28 116 121 174 233 47 92 72 116 85 83 8
-20 -77 -181 -138 -261 -70 -92 -121 -127 -192 -133 -53 -4 -57 -3 -91 31 -29
29 -35 42 -35 76 0 48 29 130 69 193 l29 45 -35 11 c-31 10 -43 7 -116 -29
-44 -21 -86 -39 -91 -40 -6 0 -29 -37 -50 -82 -43 -89 -115 -171 -178 -200
-20 -9 -57 -17 -82 -17 -92 0 -117 62 -77 189 10 34 18 61 16 61 -1 0 -18 -24
-38 -54 -47 -71 -129 -150 -181 -176 -50 -24 -106 -26 -145 -5 -34 17 -41 33
-41 90 0 54 16 102 91 276 32 75 59 146 59 157 0 19 -3 20 -32 10 -47 -17
-187 -156 -256 -256 -101 -144 -99 -142 -143 -142 -26 0 -46 7 -60 21 -19 19
-19 22 -5 42 101 141 186 347 143 347 -42 0 -219 -162 -280 -255 -14 -22 -45
-92 -68 -155 -23 -63 -49 -121 -58 -128 -16 -13 -81 -12 -112 2 -11 5 -25 -7
-49 -41 -47 -66 -117 -140 -164 -175 -28 -20 -51 -28 -81 -28 -116 0 -144 160
-80 469 14 68 22 127 18 131 -7 6 -298 56 -366 62 -28 3 -30 -1 -110 -187
-111 -255 -187 -388 -261 -453 -41 -36 -103 -52 -117 -31 -14 22 -5 33 34 42
52 13 121 92 184 213 53 103 167 363 179 408 l6 26 -88 0 c-127 0 -196 -22
-253 -80 -26 -25 -53 -57 -62 -70 -18 -27 -39 -20 -39 14 0 37 62 128 111 163
62 44 141 63 269 63 l105 0 39 103 c65 169 223 541 275 645 136 271 270 404
364 361z m177 -1279 c-39 -98 -212 -382 -259 -424 -21 -19 -21 -19 -21 10 0
16 14 109 32 207 l33 177 31 0 c45 0 126 26 165 54 19 13 35 25 36 25 2 1 -6
-22 -17 -49z m570 -448 c0 -9 -4 -32 -9 -49 l-9 -32 51 39 c93 69 150 78 198
31 31 -32 37 -68 19 -116 -8 -22 -8 -26 4 -22 8 3 33 11 55 18 31 9 50 24 76
60 56 78 141 110 194 73 22 -16 24 -16 33 0 11 20 76 22 84 2 3 -8 -21 -67
-54 -132 -63 -127 -88 -191 -78 -202 12 -12 77 32 115 77 67 81 96 130 83 143
-35 35 16 128 71 128 51 0 57 -43 15 -102 l-19 -28 39 -6 c63 -10 70 -18 48
-56 -52 -89 -70 -136 -57 -157 28 -44 134 67 180 187 26 69 65 117 115 141 53
26 86 26 119 1 l26 -20 6 20 c5 15 15 20 41 20 20 0 37 -6 40 -14 3 -8 -16
-56 -42 -107 -26 -52 -57 -122 -70 -157 -21 -54 -22 -63 -9 -68 30 -12 89 48
199 202 13 18 21 23 29 15 10 -10 -30 -80 -95 -163 -39 -50 -114 -98 -153 -98
-45 0 -58 20 -53 78 l5 48 -45 -23 c-56 -28 -76 -29 -103 -2 l-21 21 -50 -56
c-76 -85 -141 -96 -184 -31 -13 19 -13 31 -4 67 7 24 21 58 32 75 11 18 17 37
13 43 -15 24 -42 7 -73 -43 -62 -102 -150 -177 -208 -177 -43 0 -57 20 -52 79
l3 50 -30 -19 c-50 -30 -88 -34 -116 -11 -20 16 -24 28 -23 68 l2 49 -58 -20
c-40 -14 -62 -28 -69 -44 -18 -38 -103 -122 -145 -144 -32 -16 -53 -19 -101
-16 l-61 5 -89 -334 c-94 -354 -98 -362 -151 -349 -13 4 -24 13 -24 21 0 16
269 1035 277 1048 2 4 22 7 44 7 31 0 39 -4 39 -18z m-1126 -152 c32 -12 72
-35 90 -50 28 -26 31 -34 31 -87 0 -73 -21 -117 -94 -195 -92 -100 -256 -196
-397 -232 -81 -21 -106 -21 -102 1 2 12 30 25 93 43 114 33 170 58 254 114
168 112 248 264 175 331 -43 40 -89 50 -224 50 -146 -1 -246 -23 -377 -85
-100 -47 -161 -88 -235 -158 -168 -159 -188 -325 -58 -466 23 -25 92 -86 153
-135 144 -117 188 -179 207 -298 18 -109 -27 -243 -116 -342 -157 -174 -505
-301 -823 -301 -190 1 -244 23 -249 102 -4 63 40 125 150 208 197 148 501 281
472 206 -3 -8 -20 -17 -38 -20 -92 -17 -385 -190 -483 -284 -77 -74 -82 -119
-17 -152 39 -19 226 -17 322 4 178 39 394 134 517 228 58 44 76 65 104 121 29
57 34 78 34 135 0 118 -51 198 -207 326 -169 140 -227 218 -242 327 -8 56 17
156 53 219 162 277 726 495 1007 390z m-156 -1003 c8 -9 -3 -43 -38 -125 -66
-152 -91 -227 -97 -289 -5 -47 -4 -53 13 -53 27 0 125 107 155 171 15 30 39
81 55 113 38 78 115 157 177 181 40 15 54 16 86 7 23 -7 42 -21 48 -34 30 -68
-78 -215 -199 -271 -44 -20 -47 -24 -53 -68 -4 -29 -2 -56 5 -69 29 -54 145
15 243 141 42 56 67 102 99 189 l43 115 46 3 c65 4 75 -11 49 -77 -11 -29 -20
-54 -20 -57 0 -3 24 15 53 40 61 54 121 86 176 93 33 5 44 1 66 -22 24 -24 27
-32 21 -72 l-6 -46 49 46 c111 104 229 124 262 46 16 -40 4 -78 -77 -251 -61
-130 -77 -188 -54 -188 64 0 253 225 281 334 5 22 18 66 27 96 17 55 17 55 60
58 64 5 73 -7 56 -71 -19 -73 -19 -74 29 -30 96 88 191 121 260 88 62 -29 77
-86 51 -192 l-6 -22 68 23 c47 16 68 28 65 37 -19 66 -1 117 52 149 92 56 137
-14 72 -112 -27 -41 -26 -43 30 -53 48 -9 75 -22 75 -36 0 -5 -16 -35 -35 -65
-92 -143 -83 -238 15 -172 34 23 99 102 118 142 60 130 89 181 127 224 77 85
183 114 230 62 53 -58 -63 -228 -195 -286 -40 -18 -50 -36 -50 -94 0 -96 86
-75 202 48 36 38 82 97 103 131 37 59 56 73 71 50 9 -16 -95 -165 -161 -230
-79 -77 -137 -109 -203 -109 -46 0 -58 4 -83 29 -16 16 -32 43 -35 60 l-6 31
-40 -45 c-44 -50 -103 -85 -143 -85 -34 0 -82 25 -95 49 -23 45 -5 130 47 213
13 21 23 40 23 42 0 2 -14 7 -30 11 -22 5 -60 -4 -139 -31 -107 -38 -108 -39
-142 -92 -48 -77 -147 -166 -205 -186 -59 -20 -120 -21 -156 -2 -15 8 -29 12
-31 8 -2 -4 -57 -207 -122 -452 -70 -263 -125 -450 -134 -457 -27 -23 -101
-14 -101 13 0 8 63 250 140 540 77 289 140 528 140 531 0 3 -20 -22 -45 -55
-104 -139 -248 -182 -293 -89 -19 40 -4 98 68 265 58 136 69 172 52 172 -4 0
-28 -13 -53 -28 -57 -37 -146 -136 -216 -240 -59 -89 -82 -103 -133 -82 -38
16 -38 30 0 86 35 50 105 196 114 237 8 32 -2 34 -52 8 -42 -22 -166 -146
-205 -206 -14 -22 -42 -85 -62 -140 -20 -54 -41 -103 -48 -107 -17 -11 -65
-10 -87 2 -19 10 -19 12 4 75 l23 64 -56 -48 c-76 -66 -129 -91 -190 -91 -41
0 -54 5 -79 29 -16 17 -32 43 -35 60 l-6 30 -54 -53 c-92 -92 -182 -96 -206
-10 -18 64 26 251 98 417 20 47 20 47 69 47 28 0 54 -6 60 -13z"/>
<path d="M1956 4236 c-97 -102 -208 -321 -396 -788 l-88 -218 37 -6 c20 -3
105 -19 190 -36 84 -16 155 -27 158 -25 8 9 172 863 183 959 12 106 6 168 -17
168 -8 0 -38 -24 -67 -54z m60 -113 c-7 -78 -165 -904 -175 -915 -6 -7 -246
33 -256 44 -12 12 242 620 316 755 42 76 110 183 117 183 2 0 2 -30 -2 -67z"/>
<path d="M3509 3235 c-26 -14 -59 -69 -59 -97 0 -7 15 -20 33 -28 28 -13 32
-20 31 -52 -1 -35 1 -38 30 -43 17 -3 44 -2 61 3 24 7 31 16 38 48 29 134 -40
220 -134 169z"/>
<path d="M3434 2904 c-45 -81 -70 -152 -56 -166 14 -14 72 15 122 61 34 31
110 142 110 161 0 4 -32 7 -71 6 l-71 -1 -34 -61z"/>
<path d="M2928 2570 c-67 -44 -118 -111 -135 -177 -8 -30 -13 -57 -11 -58 2
-2 48 19 103 46 93 46 102 54 122 97 34 71 29 122 -11 122 -13 0 -43 -14 -68
-30z"/>
<path d="M3375 2587 c-30 -16 -54 -47 -80 -102 -36 -76 -41 -105 -18 -105 40
0 94 50 123 116 16 35 27 71 24 78 -8 21 -27 26 -49 13z"/>
<path d="M4050 2574 c-57 -49 -115 -194 -77 -194 33 0 96 60 121 116 31 68 32
80 7 94 -16 8 -26 5 -51 -16z"/>
<path d="M3251 1415 c-43 -19 -118 -83 -165 -140 -26 -31 -44 -68 -57 -117
-11 -40 -22 -82 -26 -92 -5 -18 -3 -17 25 3 17 12 83 47 145 77 l115 55 26 58
c32 73 35 145 7 161 -25 13 -29 12 -70 -5z m49 -126 c-11 -30 -23 -59 -28 -64
-7 -11 -144 -76 -149 -71 -1 1 2 17 7 35 10 36 69 104 140 164 44 37 45 37 48
14 2 -13 -6 -48 -18 -78z"/>
<path d="M1497 1729 c-23 -33 -21 -87 6 -139 l22 -45 61 -3 c61 -3 61 -3 118
49 46 42 56 57 56 83 0 54 -23 66 -142 73 -102 6 -105 5 -121 -18z m117 -10
c37 1 56 -15 56 -44 0 -27 -96 -117 -120 -113 -8 2 -24 29 -35 60 -16 47 -17
61 -7 83 11 24 16 26 45 20 18 -3 45 -6 61 -6z"/>
</g>
</svg>
